<svg id="Ebene_1" data-name="Ebene 1" xmlns="http://www.w3.org/2000/svg" xmlns:xlink="http://www.w3.org/1999/xlink" viewBox="0 0 250 250"><defs><style>.cls-1{fill:none;}.cls-2{clip-path:url(#clip-path);}.cls-3{fill:#92d050;}.cls-3,.cls-4,.cls-5,.cls-6{fill-opacity:0.75;}.cls-4{fill:#002060;}.cls-5{fill:#ffc000;}.cls-6{fill:red;}</style><clipPath id="clip-path"><rect class="cls-1" x="-0.54" y="35.88" width="112.6" height="184.62"/></clipPath></defs><g class="cls-2"><g id="g1051"><path id="path39" class="cls-3" d="M116.27,144.18A107.37,107.37,0,0,1,.2,46.28q-.44-5.19-.38-10.4L48,36.47a59.19,59.19,0,0,0,58.47,59.91c1.91,0,3.83,0,5.73-.2Z"/><path id="path41" class="cls-4" d="M46.58,214.58A107.37,107.37,0,0,1,154,107.21h.25l-.08,36.46A70.91,70.91,0,0,0,83,214.41v.17Z"/><path id="path43" class="cls-5" d="M.37,214.58A107.36,107.36,0,0,1,121.83,108.14l-6.11,46.13a60.8,60.8,0,0,0-68.81,60.31Z"/><path id="path45" class="cls-6" d="M155.07,144A107.37,107.37,0,0,1,47.7,36.64v-.26l36.46.09a70.91,70.91,0,0,0,70.74,71.08h.17Z"/></g></g><path id="path295" d="M176.88,148.56H147.7v65.07H111.08V35.89h66q31.5,0,48.58,14T242.79,89.6q0,18.2-7.93,30.4t-23.8,19.29l38.45,72.63v1.71H210.2ZM147.7,118.9h29.54q13.8,0,21.36-7t7.57-19.41q0-12.57-7.2-19.77t-21.85-7.2H147.7Z"/></svg>